# 3ds Max Wavefront OBJ Exporter v0.99 - (c)2007 guruware
# File Created: 09.01.2025 14:49:49

mtllib dice_new.mtl

#
# object low
#

v  -26.609016 -30.000000 26.609016
v  -26.609016 -30.000000 -0.000000
v  0.000000 -30.000000 -0.000000
v  0.000000 -30.000000 26.609016
v  -26.609016 30.000000 26.609016
v  0.000000 30.000000 26.609016
v  0.000000 30.000000 -0.000000
v  -26.609016 30.000000 -0.000000
v  -26.609016 -26.609016 30.000000
v  0.000000 -26.609016 30.000000
v  0.000000 0.000000 30.000000
v  -26.609016 0.000000 30.000000
v  30.000000 -26.609016 26.609016
v  30.000000 -26.609016 -0.000000
v  30.000000 0.000000 -0.000000
v  30.000000 0.000000 26.609016
v  26.609016 -26.609016 -30.000000
v  0.000000 -26.609016 -30.000000
v  0.000000 0.000000 -30.000000
v  26.609016 0.000000 -30.000000
v  -30.000000 -26.609016 -26.609016
v  -30.000000 -26.609016 -0.000000
v  -30.000000 0.000000 -0.000000
v  -30.000000 0.000000 -26.609016
v  -26.609016 -29.152254 29.152254
v  -28.728384 -28.728380 28.728384
v  -29.152254 -29.152254 26.609016
v  -26.609016 -30.000000 -26.609016
v  -29.152254 -29.152254 -26.609016
v  -28.728384 -28.728380 -28.728384
v  -26.609016 -29.152254 -29.152254
v  26.609016 -30.000000 -26.609016
v  26.609016 -29.152254 -29.152254
v  28.728384 -28.728380 -28.728384
v  29.152254 -29.152254 -26.609016
v  26.609016 -30.000000 26.609016
v  29.152254 -29.152254 26.609016
v  28.728384 -28.728380 28.728384
v  26.609016 -29.152254 29.152254
v  -29.152254 29.152252 26.609016
v  -28.728382 28.728378 28.728382
v  -26.609016 29.152252 29.152254
v  26.609016 30.000000 26.609016
v  26.609016 29.152252 29.152254
v  28.728382 28.728378 28.728382
v  29.152254 29.152252 26.609016
v  26.609016 30.000000 -26.609016
v  29.152254 29.152252 -26.609016
v  28.728382 28.728378 -28.728382
v  26.609016 29.152252 -29.152254
v  -26.609016 30.000000 -26.609016
v  -26.609016 29.152252 -29.152254
v  -28.728382 28.728378 -28.728382
v  -29.152254 29.152252 -26.609016
v  -29.152254 -26.609016 29.152254
v  26.609016 -26.609016 30.000000
v  29.152254 -26.609016 29.152254
v  26.609016 26.609016 30.000000
v  29.152254 26.609016 29.152254
v  -26.609016 26.609016 30.000000
v  -29.152254 26.609016 29.152254
v  30.000000 -26.609016 -26.609016
v  29.152254 -26.609016 -29.152254
v  30.000000 26.609016 -26.609016
v  29.152254 26.609016 -29.152254
v  30.000000 26.609016 26.609016
v  -26.609016 -26.609016 -30.000000
v  -29.152254 -26.609016 -29.152254
v  -26.609016 26.609016 -30.000000
v  -29.152254 26.609016 -29.152254
v  26.609016 26.609016 -30.000000
v  -30.000000 -26.609016 26.609016
v  -30.000000 26.609016 26.609016
v  -30.000000 26.609016 -26.609016
v  -29.152254 -29.152254 -0.000000
v  0.000000 -30.000000 -26.609016
v  0.000000 -29.152254 -29.152254
v  26.609016 -30.000000 -0.000000
v  29.152254 -29.152254 -0.000000
v  0.000000 -29.152254 29.152254
v  0.000000 29.152252 29.152254
v  26.609016 30.000000 -0.000000
v  29.152254 29.152252 -0.000000
v  0.000000 30.000000 -26.609016
v  0.000000 29.152252 -29.152254
v  -29.152254 29.152252 -0.000000
v  26.609016 0.000000 30.000000
v  29.152254 0.000000 29.152254
v  0.000000 26.609016 30.000000
v  -29.152254 0.000000 29.152254
v  30.000000 0.000000 -26.609016
v  29.152254 0.000000 -29.152254
v  30.000000 26.609016 -0.000000
v  -26.609016 0.000000 -30.000000
v  -29.152254 0.000000 -29.152254
v  0.000000 26.609016 -30.000000
v  -30.000000 0.000000 26.609016
v  -30.000000 26.609016 -0.000000
# 98 vertices

vn -0.155915 -0.975388 0.155915
vn -0.160182 -0.987087 -0.000000
vn 0.000000 -1.000000 -0.000000
vn 0.000000 -0.987087 0.160182
vn -0.155916 0.975387 0.155916
vn 0.000000 0.987087 0.160183
vn 0.000000 1.000000 -0.000000
vn -0.160183 0.987087 -0.000000
vn -0.155915 -0.155915 0.975388
vn 0.000000 -0.160182 0.987087
vn 0.000000 0.000000 1.000000
vn -0.160182 0.000000 0.987087
vn 0.975388 -0.155915 0.155915
vn 0.987087 -0.160182 -0.000000
vn 1.000000 0.000000 -0.000000
vn 0.987087 0.000000 0.160182
vn 0.155915 -0.155915 -0.975388
vn 0.000000 -0.160182 -0.987087
vn 0.000000 0.000000 -1.000000
vn 0.160182 0.000000 -0.987087
vn -0.975388 -0.155915 -0.155915
vn -0.987087 -0.160182 -0.000000
vn -1.000000 0.000000 -0.000000
vn -0.987087 0.000000 -0.160182
vn -0.132344 -0.700887 0.700887
vn -0.577351 -0.577349 0.577351
vn -0.700887 -0.700887 0.132344
vn -0.155915 -0.975388 -0.155915
vn -0.700887 -0.700887 -0.132344
vn -0.577351 -0.577349 -0.577351
vn -0.132344 -0.700887 -0.700887
vn 0.155915 -0.975388 -0.155915
vn 0.132344 -0.700887 -0.700887
vn 0.577351 -0.577349 -0.577351
vn 0.700887 -0.700887 -0.132344
vn 0.155915 -0.975388 0.155915
vn 0.700887 -0.700887 0.132344
vn 0.577351 -0.577349 0.577351
vn 0.132344 -0.700887 0.700887
vn -0.700866 0.700907 0.132352
vn -0.577350 0.577350 0.577350
vn -0.132352 0.700907 0.700866
vn 0.155916 0.975387 0.155916
vn 0.132352 0.700907 0.700866
vn 0.577350 0.577350 0.577350
vn 0.700866 0.700907 0.132352
vn 0.155916 0.975387 -0.155916
vn 0.700866 0.700907 -0.132352
vn 0.577350 0.577350 -0.577350
vn 0.132352 0.700907 -0.700866
vn -0.155916 0.975387 -0.155916
vn -0.132352 0.700907 -0.700866
vn -0.577350 0.577350 -0.577350
vn -0.700866 0.700907 -0.132352
vn -0.700887 -0.132343 0.700887
vn 0.155915 -0.155915 0.975388
vn 0.700887 -0.132343 0.700887
vn 0.155924 0.155906 0.975388
vn 0.700887 0.132344 0.700887
vn -0.155924 0.155906 0.975388
vn -0.700887 0.132344 0.700887
vn 0.975388 -0.155915 -0.155915
vn 0.700887 -0.132343 -0.700887
vn 0.975388 0.155906 -0.155924
vn 0.700887 0.132344 -0.700887
vn 0.975388 0.155906 0.155924
vn -0.155915 -0.155915 -0.975388
vn -0.700887 -0.132343 -0.700887
vn -0.155924 0.155906 -0.975388
vn -0.700887 0.132344 -0.700887
vn 0.155924 0.155906 -0.975388
vn -0.975388 -0.155915 0.155915
vn -0.975388 0.155906 0.155924
vn -0.975388 0.155906 -0.155924
vn -0.707107 -0.707107 -0.000000
vn 0.000000 -0.987087 -0.160182
vn 0.000000 -0.707107 -0.707107
vn 0.160182 -0.987087 -0.000000
vn 0.707107 -0.707107 -0.000000
vn 0.000000 -0.707107 0.707107
vn 0.000000 0.707145 0.707068
vn 0.160183 0.987087 -0.000000
vn 0.707068 0.707145 -0.000000
vn 0.000000 0.987087 -0.160183
vn 0.000000 0.707145 -0.707068
vn -0.707068 0.707145 -0.000000
vn 0.160182 0.000000 0.987087
vn 0.707107 0.000000 0.707107
vn 0.000000 0.160165 0.987090
vn -0.707107 0.000000 0.707107
vn 0.987087 0.000000 -0.160182
vn 0.707107 0.000000 -0.707107
vn 0.987090 0.160165 -0.000000
vn -0.160182 0.000000 -0.987087
vn -0.707107 0.000000 -0.707107
vn 0.000000 0.160165 -0.987090
vn -0.987087 0.000000 0.160182
vn -0.987090 0.160165 -0.000000
# 98 vertex normals

vt 0.719937 0.712037 0.000000
vt 0.617491 0.712149 0.000000
vt 0.617512 0.609641 0.000000
vt 0.720108 0.609558 0.000000
vt 0.719993 0.037883 0.000000
vt 0.720141 0.140357 0.000000
vt 0.617544 0.140259 0.000000
vt 0.617550 0.037751 0.000000
vt 0.954613 0.477397 0.000000
vt 0.852146 0.477554 0.000000
vt 0.852230 0.374957 0.000000
vt 0.954738 0.374952 0.000000
vt 0.719894 0.477301 0.000000
vt 0.617530 0.477230 0.000000
vt 0.617531 0.374950 0.000000
vt 0.719823 0.374953 0.000000
vt 0.485314 0.477710 0.000000
vt 0.382816 0.477589 0.000000
vt 0.382827 0.374950 0.000000
vt 0.485165 0.374944 0.000000
vt 0.250233 0.477477 0.000000
vt 0.147818 0.477454 0.000000
vt 0.147771 0.374952 0.000000
vt 0.250176 0.374953 0.000000
vt 0.734328 0.710785 0.000000
vt 0.732702 0.724826 0.000000
vt 0.718684 0.726444 0.000000
vt 0.515050 0.712000 0.000000
vt 0.516298 0.726405 0.000000
vt 0.502280 0.724782 0.000000
vt 0.500659 0.710742 0.000000
vt 0.514780 0.507087 0.000000
vt 0.500198 0.507798 0.000000
vt 0.500705 0.491761 0.000000
vt 0.514896 0.492146 0.000000
vt 0.720275 0.507112 0.000000
vt 0.720159 0.492162 0.000000
vt 0.734338 0.491777 0.000000
vt 0.734855 0.507825 0.000000
vt 0.718743 0.023476 0.000000
vt 0.732760 0.025096 0.000000
vt 0.734384 0.039137 0.000000
vt 0.720286 0.242804 0.000000
vt 0.734866 0.242094 0.000000
vt 0.734342 0.258139 0.000000
vt 0.720164 0.257750 0.000000
vt 0.514791 0.242795 0.000000
vt 0.514901 0.257743 0.000000
vt 0.500707 0.258124 0.000000
vt 0.500208 0.242080 0.000000
vt 0.515109 0.037873 0.000000
vt 0.500718 0.039126 0.000000
vt 0.502343 0.025085 0.000000
vt 0.516360 0.023466 0.000000
vt 0.969020 0.476145 0.000000
vt 0.967401 0.490163 0.000000
vt 0.953360 0.491788 0.000000
vt 0.749693 0.477713 0.000000
vt 0.750399 0.492296 0.000000
vt 0.734755 0.477598 0.000000
vt 0.749690 0.272205 0.000000
vt 0.734755 0.272317 0.000000
vt 0.750396 0.257622 0.000000
vt 0.954602 0.272509 0.000000
vt 0.953347 0.258118 0.000000
vt 0.967386 0.259740 0.000000
vt 0.969008 0.273758 0.000000
vt 0.515165 0.477293 0.000000
vt 0.500288 0.477586 0.000000
vt 0.515167 0.272600 0.000000
vt 0.500288 0.272302 0.000000
vt 0.719895 0.272607 0.000000
vt 0.484598 0.492292 0.000000
vt 0.280335 0.477481 0.000000
vt 0.281098 0.491891 0.000000
vt 0.265274 0.490204 0.000000
vt 0.265272 0.477288 0.000000
vt 0.280328 0.272430 0.000000
vt 0.265261 0.272623 0.000000
vt 0.265269 0.259707 0.000000
vt 0.281091 0.258020 0.000000
vt 0.485310 0.272178 0.000000
vt 0.484594 0.257596 0.000000
vt 0.249482 0.491886 0.000000
vt 0.045351 0.477400 0.000000
vt 0.046607 0.491804 0.000000
vt 0.032562 0.490174 0.000000
vt 0.030939 0.476147 0.000000
vt 0.045353 0.272502 0.000000
vt 0.030942 0.273750 0.000000
vt 0.032571 0.259722 0.000000
vt 0.046614 0.258098 0.000000
vt 0.250231 0.272431 0.000000
vt 0.249482 0.258022 0.000000
vt 0.617489 0.726691 0.000000
vt 0.514918 0.609533 0.000000
vt 0.500363 0.609449 0.000000
vt 0.617527 0.507283 0.000000
vt 0.617528 0.492256 0.000000
vt 0.734663 0.609490 0.000000
vt 0.734696 0.140431 0.000000
vt 0.617542 0.242616 0.000000
vt 0.617542 0.257648 0.000000
vt 0.514950 0.140347 0.000000
vt 0.500395 0.140419 0.000000
vt 0.617551 0.023209 0.000000
vt 0.852071 0.492110 0.000000
vt 0.749874 0.374958 0.000000
vt 0.734845 0.374956 0.000000
vt 0.852138 0.272363 0.000000
vt 0.852063 0.257808 0.000000
vt 0.969280 0.374951 0.000000
vt 0.515238 0.374946 0.000000
vt 0.500207 0.374944 0.000000
vt 0.617532 0.272671 0.000000
vt 0.382820 0.492157 0.000000
vt 0.280440 0.374954 0.000000
vt 0.265309 0.374954 0.000000
vt 0.382809 0.272314 0.000000
vt 0.382811 0.257747 0.000000
vt 0.147889 0.491967 0.000000
vt 0.045308 0.374949 0.000000
vt 0.030804 0.374948 0.000000
vt 0.147819 0.272451 0.000000
vt 0.147891 0.257938 0.000000
# 125 texture coords

o low
g low
usemtl low
s 1
f 1/1/1 2/2/2 3/3/3 4/4/4 
f 5/5/5 6/6/6 7/7/7 8/8/8 
s 2
f 9/9/9 10/10/10 11/11/11 12/12/12 
s 4
f 13/13/13 14/14/14 15/15/15 16/16/16 
s 2
f 17/17/17 18/18/18 19/19/19 20/20/20 
s 4
f 21/21/21 22/22/22 23/23/23 24/24/24 
s 25
f 1/1/1 25/25/25 26/26/26 27/27/27 
f 28/28/28 29/29/29 30/30/30 31/31/31 
f 32/32/32 33/33/33 34/34/34 35/35/35 
f 36/36/36 37/37/37 38/38/38 39/39/39 
f 5/5/5 40/40/40 41/41/41 42/42/42 
f 43/43/43 44/44/44 45/45/45 46/46/46 
f 47/47/47 48/48/48 49/49/49 50/50/50 
f 51/51/51 52/52/52 53/53/53 54/54/54 
s 42
f 9/9/9 55/55/55 26/56/26 25/57/25 
s 50
f 56/58/56 39/59/39 38/38/38 57/60/57 
s 42
f 58/61/58 59/62/59 45/45/45 44/63/44 
s 50
f 60/64/60 42/65/42 41/66/41 61/67/61 
s 44
f 13/13/13 57/60/57 38/38/38 37/37/37 
s 52
f 62/68/62 35/35/35 34/34/34 63/69/63 
s 44
f 64/70/64 65/71/65 49/49/49 48/48/48 
s 52
f 66/72/66 46/46/46 45/45/45 59/62/59 
s 42
f 17/17/17 63/69/63 34/34/34 33/73/33 
s 50
f 67/74/67 31/75/31 30/76/30 68/77/68 
s 42
f 69/78/69 70/79/70 53/80/53 52/81/52 
s 50
f 71/82/71 50/83/50 49/49/49 65/71/65 
s 44
f 21/21/21 68/77/68 30/76/30 29/84/29 
s 52
f 72/85/72 27/86/27 26/87/26 55/88/55 
s 44
f 73/89/73 61/90/61 41/91/41 40/92/40 
s 52
f 74/93/74 54/94/54 53/80/53 70/79/70 
s 3
f 28/28/28 2/2/2 75/95/75 29/29/29 
s 5
f 32/32/32 76/96/76 77/97/77 33/33/33 
s 3
f 36/36/36 78/98/78 79/99/79 37/37/37 
s 5
f 1/1/1 4/4/4 80/100/80 25/25/25 
f 43/43/43 6/6/6 81/101/81 44/44/44 
s 3
f 47/47/47 82/102/82 83/103/83 48/48/48 
s 5
f 51/51/51 84/104/84 85/105/85 52/52/52 
s 3
f 5/5/5 8/8/8 86/106/86 40/40/40 
s 6
f 56/58/56 10/10/10 80/107/80 39/59/39 
s 3
f 58/61/58 87/108/87 88/109/88 59/62/59 
s 6
f 60/64/60 89/110/89 81/111/81 42/65/42 
s 3
f 9/9/9 12/12/12 90/112/90 55/55/55 
s 6
f 62/68/62 14/14/14 79/99/79 35/35/35 
s 5
f 64/70/64 91/113/91 92/114/92 65/71/65 
s 6
f 66/72/66 93/115/93 83/103/83 46/46/46 
s 5
f 13/13/13 16/16/16 88/109/88 57/60/57 
s 6
f 67/74/67 18/18/18 77/116/77 31/75/31 
s 3
f 69/78/69 94/117/94 95/118/95 70/79/70 
s 6
f 71/82/71 96/119/96 85/120/85 50/83/50 
s 3
f 17/17/17 20/20/20 92/114/92 63/69/63 
s 6
f 72/85/72 22/22/22 75/121/75 27/86/27 
s 5
f 73/89/73 97/122/97 90/123/90 61/90/61 
s 6
f 74/93/74 98/124/98 86/125/86 54/94/54 
s 5
f 21/21/21 24/24/24 95/118/95 68/77/68 
s 2
f 87/108/87 58/61/58 89/110/89 11/11/11 
s 4
f 91/113/91 64/70/64 93/115/93 15/15/15 
s 2
f 94/117/94 69/78/69 96/119/96 19/19/19 
s 4
f 97/122/97 73/89/73 98/124/98 23/23/23 
s 3
f 87/108/87 56/58/56 57/60/57 88/109/88 
f 12/12/12 60/64/60 61/67/61 90/112/90 
s 5
f 91/113/91 62/68/62 63/69/63 92/114/92 
f 16/16/16 66/72/66 59/62/59 88/109/88 
s 3
f 94/117/94 67/74/67 68/77/68 95/118/95 
f 20/20/20 71/82/71 65/71/65 92/114/92 
s 5
f 97/122/97 72/85/72 55/88/55 90/123/90 
f 24/24/24 74/93/74 70/79/70 95/118/95 
s 1
f 76/96/76 32/32/32 78/98/78 3/3/3 
f 6/6/6 43/43/43 82/102/82 7/7/7 
s 2
f 10/10/10 56/58/56 87/108/87 11/11/11 
f 18/18/18 67/74/67 94/117/94 19/19/19 
s 5
f 76/96/76 28/28/28 31/31/31 77/97/77 
f 4/4/4 36/36/36 39/39/39 80/100/80 
f 6/6/6 5/5/5 42/42/42 81/101/81 
f 84/104/84 47/47/47 50/50/50 85/105/85 
s 6
f 10/10/10 9/9/9 25/57/25 80/107/80 
f 89/110/89 58/61/58 44/63/44 81/111/81 
f 18/18/18 17/17/17 33/73/33 77/116/77 
f 96/119/96 69/78/69 52/81/52 85/120/85 
s 2
f 89/110/89 60/64/60 12/12/12 11/11/11 
f 96/119/96 71/82/71 20/20/20 19/19/19 
s 1
f 2/2/2 28/28/28 76/96/76 3/3/3 
f 7/7/7 84/104/84 51/51/51 8/8/8 
s 4
f 14/14/14 62/68/62 91/113/91 15/15/15 
f 22/22/22 72/85/72 97/122/97 23/23/23 
s 3
f 2/2/2 1/1/1 27/27/27 75/95/75 
f 78/98/78 32/32/32 35/35/35 79/99/79 
f 82/102/82 43/43/43 46/46/46 83/103/83 
f 8/8/8 51/51/51 54/54/54 86/106/86 
s 6
f 14/14/14 13/13/13 37/37/37 79/99/79 
f 93/115/93 64/70/64 48/48/48 83/103/83 
f 22/22/22 21/21/21 29/84/29 75/121/75 
f 98/124/98 73/89/73 40/92/40 86/125/86 
s 4
f 93/115/93 66/72/66 16/16/16 15/15/15 
f 98/124/98 74/93/74 24/24/24 23/23/23 
s 1
f 78/98/78 36/36/36 4/4/4 3/3/3 
f 82/102/82 47/47/47 84/104/84 7/7/7 
# 96 polygons

